<?xml version="1.0" encoding="utf-8"?>
<svg xmlns="http://www.w3.org/2000/svg" height="203" width="203">
    <rect id="backgroundrect" width="100%" height="100%" x="0" y="0" fill="none" stroke="none" class="" style=""/>
    <g class="currentLayer" style="">
        <path fill="#6E6E6E" stroke="none" stroke-width="3"
              fill-opacity="0.2"
              d="M1.5,101.50000070723559 C1.5,46.25138153196731 46.251382194680424,1.5 101.50000218811306,1.5 C156.74862218154567,1.5 201.50000437622612,46.25138153196731 201.50000437622612,101.50000070723559 C201.50000437622612,156.74861988250385 156.74862218154567,201.50000141447117 101.50000218811306,201.50000141447117 C46.251382194680424,201.50000141447117 1.5,156.74861988250385 1.5,101.50000070723559 z"
              id="svg_2" class=""/>
        <polygon fill="#DB5860"
                 points="104.33866882324219,109.36550903320312 69.43017578125,127.39100646972656 69.83352661132812,70.1229248046875 97.22247314453125,56.00184631347656 92.44688415527344,91.0645523071289 133.56982421875,69.86168670654297 110.41098022460938,146.99815368652344 "
                 transform="rotate(26.697595596313477 101.50000000000003,101.49999999999999) " id="svg_1" class=""/>
    </g>
    <path d="M 136.411 162.399 L 134.981 158.699 C 140.341 156.872 144.311 153.926 146.891 149.859 C 149.471 145.786 150.761 140.792 150.761 134.879 L 150.761 120.879 C 150.761 116.232 151.754 112.279 153.741 109.019 C 155.728 105.766 158.808 103.542 162.981 102.349 C 158.808 101.196 155.728 99.002 153.741 95.769 C 151.754 92.529 150.761 88.586 150.761 83.939 L 150.761 69.769 C 150.761 63.809 149.501 58.746 146.981 54.579 C 144.461 50.406 140.541 47.466 135.221 45.759 L 136.411 42.069 C 143.438 44.249 148.451 47.712 151.451 52.459 C 154.451 57.206 155.951 62.976 155.951 69.769 L 155.951 83.939 C 155.951 88.986 157.111 92.889 159.431 95.649 C 161.758 98.409 165.381 99.789 170.301 99.789 L 170.301 104.849 C 165.381 104.849 161.758 106.259 159.431 109.079 C 157.111 111.899 155.951 115.832 155.951 120.879 L 155.951 134.879 C 155.951 141.666 154.461 147.402 151.481 152.089 C 148.501 156.776 143.478 160.212 136.411 162.399 Z"
          transform="matrix(1, 0, 0, 1, 0, 0)" style="fill: rgb(51, 51, 51); white-space: pre;"/>
    <path d="M -69.702 -42.283 L -71.132 -45.983 C -65.772 -47.81 -61.802 -50.756 -59.222 -54.823 C -56.642 -58.896 -55.352 -63.89 -55.352 -69.803 L -55.352 -83.803 C -55.352 -88.45 -54.359 -92.403 -52.372 -95.663 C -50.385 -98.916 -47.305 -101.14 -43.132 -102.333 C -47.305 -103.486 -50.385 -105.68 -52.372 -108.913 C -54.359 -112.153 -55.352 -116.096 -55.352 -120.743 L -55.352 -134.913 C -55.352 -140.873 -56.612 -145.936 -59.132 -150.103 C -61.652 -154.276 -65.572 -157.216 -70.892 -158.923 L -69.702 -162.613 C -62.675 -160.433 -57.662 -156.97 -54.662 -152.223 C -51.662 -147.476 -50.162 -141.706 -50.162 -134.913 L -50.162 -120.743 C -50.162 -115.696 -49.002 -111.793 -46.682 -109.033 C -44.355 -106.273 -40.732 -104.893 -35.812 -104.893 L -35.812 -99.833 C -40.732 -99.833 -44.355 -98.423 -46.682 -95.603 C -49.002 -92.783 -50.162 -88.85 -50.162 -83.803 L -50.162 -69.803 C -50.162 -63.016 -51.652 -57.28 -54.632 -52.593 C -57.612 -47.906 -62.635 -44.47 -69.702 -42.283 Z"
          transform="matrix(-1, 0, 0, -1, 0, 0)" style="fill: rgb(51, 51, 51); white-space: pre;"/>
</svg>